<svg xmlns="http://www.w3.org/2000/svg" viewBox="0 0 860 220" role="img" aria-labelledby="title desc">
  <title id="title">Agentic Dev</title>
  <desc id="desc">Agentic Dev logo with angular A symbol and wordmark.</desc>
  <defs>
    <linearGradient id="g1" x1="28" y1="18" x2="172" y2="192" gradientUnits="userSpaceOnUse">
      <stop stop-color="#06B6D4"/>
      <stop offset=".48" stop-color="#2563EB"/>
      <stop offset="1" stop-color="#7C3AED"/>
    </linearGradient>
    <linearGradient id="g2" x1="84" y1="174" x2="150" y2="126" gradientUnits="userSpaceOnUse">
      <stop stop-color="#2563EB"/>
      <stop offset="1" stop-color="#7C3AED"/>
    </linearGradient>
    <linearGradient id="word" x1="560" y1="90" x2="790" y2="150" gradientUnits="userSpaceOnUse">
      <stop stop-color="#2563EB"/>
      <stop offset="1" stop-color="#7C3AED"/>
    </linearGradient>
  </defs>
  <g transform="translate(12 10)">
    <path fill="url(#g1)" d="M18 186 74 40c7-18 31-18 38 0l64 146h-38l-16-39H66l-13 39H18Zm62-72h29L94 76l-14 38Z"/>
    <path fill="url(#g2)" d="m73 157 37-24c7-4 15 1 15 9v3c0 4-2 8-6 10l-37 24c-7 4-15-1-15-9v-3c0-4 2-8 6-10Z"/>
  </g>
  <text x="215" y="137" font-family="Inter, ui-sans-serif, system-ui, -apple-system, BlinkMacSystemFont, Segoe UI, sans-serif" font-size="84" font-weight="760" letter-spacing="-4" fill="#0F172A">agentic-</text>
  <text x="548" y="137" font-family="Inter, ui-sans-serif, system-ui, -apple-system, BlinkMacSystemFont, Segoe UI, sans-serif" font-size="84" font-weight="760" letter-spacing="-4" fill="url(#word)">dev</text>
  <text x="220" y="177" font-family="Inter, ui-sans-serif, system-ui, -apple-system, BlinkMacSystemFont, Segoe UI, sans-serif" font-size="24" font-weight="540" fill="#64748B">Assess. Explain. Plan. Build agent-ready repositories.</text>
</svg>